<svg xmlns="http://www.w3.org/2000/svg" xmlns:xlink="http://www.w3.org/1999/xlink" width="286.054" height="286.087" viewBox="0 0 286.054 286.087"><defs><style>.a{fill:#989595;}.b{fill:#7a7979;}.c{fill:#acaaa9;}.d{fill:#c1bfbe;}.e{fill:#d3d1d0;}.f{fill:#cdcbc9;}.g{fill:#fff;}.h{fill:url(#a);}.i{fill:url(#b);}.j{fill:#fffdfe;}.k{fill:url(#c);}.l{fill:url(#d);}.m{fill:url(#e);}.n{fill:url(#f);}.o{fill:url(#g);}.p{fill:url(#h);}.q{fill:url(#i);}.r{fill:url(#j);}.s{fill:url(#k);}.t{fill:url(#l);}.u{fill:url(#m);}.v{fill:#cac8c7;}.w{fill:#d7d5d4;}.x{fill:url(#o);}.y{fill:url(#p);}.z{fill:url(#q);}.aa{fill:#e3e0e0;}.ab{fill:url(#r);}</style><linearGradient id="a" y1="0.5" x2="1" y2="0.5" gradientUnits="objectBoundingBox"><stop offset="0" stop-color="#b7b6b7"/><stop offset="0.348" stop-color="#cdcbcb"/><stop offset="0.714" stop-color="#dddada"/><stop offset="0.996" stop-color="#e3e0e0"/></linearGradient><linearGradient id="b" y1="0.5" x2="1" y2="0.5" gradientUnits="objectBoundingBox"><stop offset="0.004" stop-color="#e3e0e0"/><stop offset="0.286" stop-color="#dddada"/><stop offset="0.652" stop-color="#cdcbcb"/><stop offset="1" stop-color="#b7b6b7"/></linearGradient><linearGradient id="c" y1="0.5" x2="1" y2="0.5" gradientUnits="objectBoundingBox"><stop offset="0" stop-color="#f8f6f6"/><stop offset="0.244" stop-color="#f3f1f1"/><stop offset="0.525" stop-color="#e5e4e4"/><stop offset="0.821" stop-color="#cecdce"/><stop offset="1" stop-color="#bdbdbe"/></linearGradient><linearGradient id="d" y1="0.5" x2="1" y2="0.5" gradientUnits="objectBoundingBox"><stop offset="0.004" stop-color="#e3e0e0"/><stop offset="0.532" stop-color="#e1dede"/><stop offset="0.723" stop-color="#dad7d7"/><stop offset="0.858" stop-color="#cecccc"/><stop offset="0.967" stop-color="#bdbcbd"/><stop offset="1" stop-color="#b7b6b7"/></linearGradient><linearGradient id="e" y1="0.5" x2="1" y2="0.5" gradientUnits="objectBoundingBox"><stop offset="0" stop-color="#f8f6f6"/><stop offset="0.37" stop-color="#f5f3f3"/><stop offset="0.586" stop-color="#edebeb"/><stop offset="0.763" stop-color="#dfdede"/><stop offset="0.916" stop-color="#cbcacb"/><stop offset="1" stop-color="#bdbdbe"/></linearGradient><linearGradient id="f" x1="0.506" y1="0.994" x2="0.488" y2="0.005" xlink:href="#a"/><linearGradient id="g" y1="0.5" x2="1" y2="0.5" gradientUnits="objectBoundingBox"><stop offset="0" stop-color="#bdbdbe"/><stop offset="0.005" stop-color="#bebebf"/><stop offset="0.117" stop-color="#d5d5d6"/><stop offset="0.244" stop-color="#e8e7e8"/><stop offset="0.395" stop-color="#f5f4f5"/><stop offset="0.592" stop-color="#fcfbfc"/><stop offset="1" stop-color="#fffeff"/></linearGradient><linearGradient id="h" x1="0.5" y1="1" x2="0.5" gradientUnits="objectBoundingBox"><stop offset="0" stop-color="#bdbdbe"/><stop offset="0.36" stop-color="#d4d4d4"/><stop offset="0.728" stop-color="#e5e4e5"/><stop offset="1" stop-color="#ecebeb"/></linearGradient><linearGradient id="i" x1="0.263" y1="0.984" x2="0.787" y2="0.007" xlink:href="#a"/><linearGradient id="j" x1="0.298" y1="1.01" x2="0.71" y2="-0.051" xlink:href="#h"/><linearGradient id="k" y1="0.5" x2="1" y2="0.5" gradientUnits="objectBoundingBox"><stop offset="0" stop-color="#bdbdbe"/><stop offset="0.115" stop-color="#d2d2d3"/><stop offset="0.264" stop-color="#e6e5e6"/><stop offset="0.434" stop-color="#f4f3f4"/><stop offset="0.642" stop-color="#fcfbfc"/><stop offset="1" stop-color="#fffeff"/></linearGradient><linearGradient id="l" x1="0.222" y1="0.993" x2="0.703" y2="-0.035" xlink:href="#a"/><linearGradient id="m" x1="0.282" y1="1.038" x2="0.677" y2="-0.038" xlink:href="#h"/><linearGradient id="o" x1="-0.338" y1="0.607" x2="0.801" y2="0.393" gradientUnits="objectBoundingBox"><stop offset="0" stop-color="#cdcccd"/><stop offset="0.195" stop-color="#e2e1e2"/><stop offset="0.419" stop-color="#f2f1f2"/><stop offset="0.67" stop-color="#fbfafb"/><stop offset="1" stop-color="#fffeff"/></linearGradient><linearGradient id="p" x1="-0.08" y1="0.702" x2="1.63" y2="0.301" gradientUnits="objectBoundingBox"><stop offset="0" stop-color="#c4c3c4"/><stop offset="0.292" stop-color="#d4d2d2"/><stop offset="0.631" stop-color="#dfdcdc"/><stop offset="1" stop-color="#e3e0e0"/></linearGradient><linearGradient id="q" x1="0.5" y1="1" x2="0.5" gradientUnits="objectBoundingBox"><stop offset="0" stop-color="#c8c8c8"/><stop offset="1" stop-color="#f8f6f6"/></linearGradient><linearGradient id="r" x1="0.5" y1="1" x2="0.5" gradientUnits="objectBoundingBox"><stop offset="0" stop-color="#e3e1e0"/><stop offset="1" stop-color="#f8f6f6"/></linearGradient></defs><g transform="translate(0 0)"><g transform="translate(180.189 245.324)"><path class="a" d="M823.253,904.062c13.061-4.929,25.327-14.634,36.114-25.81.359-.032,15.6-1.344,26.126-9.634q-.6.588-1.21,1.167A142.145,142.145,0,0,1,823.253,904.062Z" transform="translate(-823.174 -868.441)"/><path class="b" d="M823.284,904.216l-.138-.426c11.659-4.4,23.781-13.065,36.031-25.756l.058-.06.084-.007c.64-.057,15.691-1.462,26.007-9.588l.3.337q-.6.589-1.213,1.169A143.22,143.22,0,0,1,823.284,904.216ZM859.443,878.4c-11.021,11.405-21.945,19.568-32.529,24.314a142.872,142.872,0,0,0,56.1-32.142C873.131,876.969,860.679,878.287,859.443,878.4Z" transform="translate(-823.146 -868.378)"/><path class="c" d="M826.367,903.446c12.843-4.95,24.943-15.036,34.128-24.525,2.009-.2,17.085-1.976,25.736-10.218-6.226,5.445-13.438,12.119-21.777,17.386a168.015,168.015,0,0,1-22.037,11.69C836.4,900.361,830.446,902.035,826.367,903.446Z" transform="translate(-823.993 -868.463)"/><path class="d" d="M828.53,903.277c11-4.147,25.792-16.052,32.847-23.319,1.911-.2,15.742-2.261,24.293-9.758-5.456,4.465-12.556,11.271-20.647,16.282a190.289,190.289,0,0,1-22,11.672C837.1,900.73,831.344,902.142,828.53,903.277Z" transform="translate(-824.561 -868.857)"/><path class="e" d="M832.051,902.586A117.9,117.9,0,0,0,862.616,881a62.75,62.75,0,0,0,22.641-9.287c-4.44,3.458-11.5,10.455-19.309,15.17a223.946,223.946,0,0,1-22.083,11.709C838.634,900.894,833.8,901.786,832.051,902.586Z" transform="translate(-825.487 -869.254)"/><path class="f" d="M832.132,902.647c8.647-3.089,27.178-17.192,30.82-20.923,1.462-.174,11.659-2.478,22.066-9.683-.7.513-1.381,1.432-2.377,2.276-4.135,3.508-10.7,9.125-16.925,12.8-2.068,1.222-6.732,4.174-11.963,6.94-3.259,1.723-6.816,3.257-9.866,4.617C839.636,900.571,833.059,902.174,832.132,902.647Z" transform="translate(-825.508 -869.341)"/><path class="g" d="M885.245,872.039a2,2,0,0,0-.715.663c-7.722,5.557-19.362,10.049-20.582,10.192-2.937,3-19.561,14.366-29.426,19.037a14.058,14.058,0,0,0-1.536.474c8.885-3.51,26.635-17.041,30.191-20.681C864.639,881.548,874.795,879.186,885.245,872.039Z" transform="translate(-825.733 -869.34)"/></g><g transform="translate(215.809 179.501)"><path class="a" d="M872.245,855.01c25.226-26.162,42.306-60.4,42.306-60.4s7.565,1.5,22.213-14.413a142.031,142.031,0,0,1-38.392,65.176C887.845,853.666,872.6,854.979,872.245,855.01Z" transform="translate(-871.672 -779.376)"/><path class="b" d="M871.468,854.992l.411-.431c24.912-25.836,42.1-60,42.266-60.342l.077-.152.167.032c.008.005,7.526,1.386,22.005-14.344l.619-.672-.238.882a142.72,142.72,0,0,1-38.452,65.278c-10.438,8.223-25.618,9.64-26.258,9.7Zm43.007-60.431c-1.234,2.433-17.937,34.893-41.849,59.87,2.988-.341,16.114-2.21,25.4-9.525A142.284,142.284,0,0,0,936.1,780.726c-12.031,12.842-19.24,13.854-21.188,13.854C914.725,794.58,914.577,794.571,914.475,794.561Z" transform="translate(-871.468 -779.082)"/><path class="c" d="M874.659,854.147c22.844-24.209,38.929-54.913,40.921-58.8l.175,0c1.923,0,12.108-2.654,21.569-15.041A156.289,156.289,0,0,1,924.35,812.4a143.5,143.5,0,0,1-25.344,33C890.78,851.868,879.051,853.523,874.659,854.147Z" transform="translate(-872.307 -779.405)"/><path class="d" d="M877.139,853.337c21.642-23.442,37.031-52.378,39.5-57.154,2.1-.075,12.064-3.549,21.2-15.253-.98,3.154-1.825,6.485-2.992,9.778A147.011,147.011,0,0,1,925,812.565a144.712,144.712,0,0,1-25.344,33C892.581,851.115,882.31,852.427,877.139,853.337Z" transform="translate(-872.959 -779.568)"/><path class="e" d="M879.668,852.293c20.409-22.59,34.887-49.373,38.06-55.462,2.453-.2,12.989-5.159,20.779-15.9-1.019,3.075-1.805,6.435-2.992,9.778a148.555,148.555,0,0,1-9.789,21.749,146.309,146.309,0,0,1-25.4,33.111C894.167,850.38,884.871,851.2,879.668,852.293Z" transform="translate(-873.623 -779.568)"/><path class="h" d="M882.25,851.173c19.535-22.1,33.519-47.86,36.585-53.708,2.622-.3,14.011-6.7,20.35-16.535-1.053,2.994-1.783,6.376-2.992,9.778a150.15,150.15,0,0,1-9.788,21.749A147.524,147.524,0,0,1,901,845.568C895.762,849.654,887.424,849.913,882.25,851.173Z" transform="translate(-874.302 -779.568)"/><path class="g" d="M939.186,780.929c-.408,1.171.164-.681-.2.588-6.159,9.129-16.586,16.942-18.922,17.215-3.022,5.765-17.784,30.35-36.869,52.229a7.743,7.743,0,0,0-.944.214c19.533-22.1,33.518-47.86,36.584-53.711C921.459,797.159,932.846,790.761,939.186,780.929Z" transform="translate(-874.303 -779.568)"/></g><g transform="translate(91.03 32.997)"><path class="a" d="M714.906,639.054s-16.035-30.282-11.664-58.094c160.2-7.157,193.332,108.719,193.825,110.47a.023.023,0,0,0,0,.016v.007a143.131,143.131,0,0,1-4.928,36.292c-14.648,15.913-22.213,14.413-22.213,14.413s-5.733-28.078-34.62-55.149l0,0a158.569,158.569,0,0,0-42.285-28.088.026.026,0,0,0-.015-.01C772.646,649.487,747.051,642.144,714.906,639.054Z" transform="translate(-702.271 -580.417)"/><path class="b" d="M870.42,742.339a3.512,3.512,0,0,1-.613-.042l-.146-.029-.03-.147c-.057-.28-6.056-28.323-34.554-55.031a159.006,159.006,0,0,0-42.229-28.051l-.042-.022c-22.319-10.322-48.561-16.991-78-19.821l-.12-.011-.057-.107c-.16-.3-16.02-30.667-11.688-58.234l.029-.181.183-.008c4.732-.212,9.463-.318,14.064-.318,33.839,0,64.321,5.75,90.6,17.09a167.188,167.188,0,0,1,54.814,37.737c26.031,27.132,34.105,54.473,34.565,56.088l.021.021v.093a143.361,143.361,0,0,1-4.936,36.356l-.052.094C879.826,741.291,872.4,742.339,870.42,742.339Zm-.384-.464c1.1.1,8.5.135,21.825-14.321a142.874,142.874,0,0,0,4.906-36.095l-.01-.01.005-.074c-.461-1.62-8.507-28.85-34.457-55.9-23.935-24.949-68.536-54.689-145.088-54.689-4.534,0-9.2.1-13.86.31-4.085,26.552,10.585,55.67,11.614,57.666,29.432,2.841,55.674,9.516,78.006,19.841h.044l.049.046a159.442,159.442,0,0,1,42.31,28.113C862.881,712.531,869.511,739.562,870.036,741.874Z" transform="translate(-702.194 -580.337)"/><path class="c" d="M870.714,741.762c-.948-3.916-8.092-30.067-34.7-55.006A159.856,159.856,0,0,0,793.664,658.6l-.11-.118-.149,0c-22.3-10.3-48.481-16.964-77.826-19.819-1.664-3.288-15.284-31.207-11.513-56.812,4.534-.195,9.064-.293,13.473-.293,33.716,0,64.077,5.725,90.241,17.017A166.289,166.289,0,0,1,862.3,636.1c25.546,26.628,34.358,53.348,35,55.581l.007.21a144.405,144.405,0,0,1-4.889,35.942c-12.09,13.092-19.8,13.925-21.684,13.925Z" transform="translate(-702.513 -580.657)"/><path class="d" d="M871.474,741.307c-1.537-6-9.149-30.8-34.764-54.8a160.493,160.493,0,0,0-42.4-28.219l-.211-.226-.293-.01c-22.244-10.251-48.333-16.907-77.549-19.784-2.158-4.339-14.734-30.963-11.361-55.53,4.338-.179,8.67-.27,12.885-.27,33.623,0,63.9,5.707,89.975,16.962a165.642,165.642,0,0,1,54.3,37.382c24.956,26.012,34.489,52.3,35.49,55.709l.011.4a142.371,142.371,0,0,1-4.895,35.161C881.722,739.888,873.839,741.111,871.474,741.307Z" transform="translate(-702.753 -580.897)"/><path class="e" d="M872.214,740.81c-2.031-7.594-10.021-31.327-34.807-54.555a161.117,161.117,0,0,0-42.46-28.283l-.312-.335-.436-.014c-22.189-10.206-48.182-16.85-77.27-19.749-2.775-5.655-14.2-30.723-11.206-54.249,4.141-.163,8.274-.245,12.293-.245,33.531,0,63.713,5.688,89.708,16.906a164.971,164.971,0,0,1,54.085,37.23c24.677,25.722,34.966,51.595,35.979,55l.015.584a147.086,147.086,0,0,1-4.9,35.22C882.951,739.024,874.866,740.393,872.214,740.81Z" transform="translate(-702.991 -581.137)"/><path class="i" d="M872.939,740.271c-2.13-7.636-10.353-31.328-34.831-54.267a161.713,161.713,0,0,0-42.517-28.348l-.414-.443-.579-.018c-22.133-10.162-48.031-16.794-76.987-19.713-2.691-5.557-13.733-30.075-11.047-52.967,3.942-.148,7.873-.223,11.695-.223,33.439,0,63.532,5.669,89.441,16.852a164.3,164.3,0,0,1,53.867,37.078c24.4,25.43,35.437,51.132,36.464,54.532l-.049.8a149.625,149.625,0,0,1-4.839,35.005C883.934,738.435,875.525,739.68,872.939,740.271Z" transform="translate(-703.232 -581.376)"/><path class="j" d="M863.811,640.6c-.224-.233-.444-.467-.668-.7a164.266,164.266,0,0,0-53.868-37.078c-25.909-11.186-56-16.853-89.439-16.853-3.824,0-7.756.076-11.7.224-2.48,21.139,6.747,43.663,10.293,51.365-.274-.031-.547-.058-.82-.085-2.694-5.555-13.737-30.075-11.051-52.967,3.945-.148,7.873-.224,11.7-.224,33.437,0,63.53,5.672,89.439,16.853a164.335,164.335,0,0,1,53.868,37.078C862.327,639.013,863.075,639.811,863.811,640.6Z" transform="translate(-703.232 -581.376)"/><path class="k" d="M885.836,731.633a6.54,6.54,0,0,1-9.932-2.648c-5.006-11.72-14.537-28.49-32.143-44.988a166.66,166.66,0,0,0-42.972-28.851l-2.968-1.375c-20.691-9.358-44.513-15.727-70.914-18.966a6.52,6.52,0,0,1-5.245-4.02c-2.974-7.326-7.108-19.482-7.992-32.182a6.539,6.539,0,0,1,6.5-7.013h.066c32.7,0,62.077,5.522,87.309,16.412a158.958,158.958,0,0,1,52.117,35.863c20.476,21.342,31.486,43.25,34.453,50.392a6.485,6.485,0,0,1,.5,2.66,144.488,144.488,0,0,1-3.9,29.017,6.458,6.458,0,0,1-1.917,3.246A36.982,36.982,0,0,1,885.836,731.633Z" transform="translate(-705.206 -583.295)"/></g><g transform="translate(91.736)"><path class="a" d="M703.511,569.193c1.667-10.627,6.312-20.89,15.967-28.972A142.836,142.836,0,0,1,897.336,679.663C896.843,677.912,863.707,562.036,703.511,569.193Z" transform="translate(-703.246 -535.653)"/><path class="b" d="M897.455,681.167l-.429-1.523c-.325-1.156-8.276-28.63-34.477-55.936-23.939-24.949-68.54-54.689-145.079-54.689-4.594,0-9.319.108-14.044.318l-.274.012.043-.271c1.879-11.976,7.277-21.77,16.045-29.11l.089-.046a143.626,143.626,0,0,1,90.645,6.834,143.178,143.178,0,0,1,87.491,132.828ZM717.47,568.57c33.834,0,64.311,5.75,90.587,17.09A167.214,167.214,0,0,1,862.872,623.4c23.238,24.218,32.167,48.588,34.148,54.7A142.675,142.675,0,0,0,719.488,540.345c-8.592,7.208-13.91,16.807-15.807,28.532C708.321,568.674,712.959,568.57,717.47,568.57Z" transform="translate(-703.152 -535.573)"/><path class="c" d="M897.623,679.679c-2.026-10.156-13.293-34.881-34.048-56.513C839.516,598.092,794.7,568.2,717.85,568.2c-4.34,0-8.795.1-13.256.283,1.948-11.334,6.84-21.247,15.169-28.264a145.256,145.256,0,0,1,35.027-4.344,142.414,142.414,0,0,1,103.647,44.539A141.343,141.343,0,0,1,888.02,627.09a148.344,148.344,0,0,1,8.382,32.865A180.58,180.58,0,0,1,897.623,679.679Z" transform="translate(-703.531 -535.653)"/><path class="d" d="M897.91,679.707c-2.45-12.154-15.192-37.818-33.561-56.962-24.149-25.169-69.119-55.171-146.21-55.171-4.073,0-8.255.084-12.446.249,2.017-10.747,6.427-20.83,14.359-27.558A146.424,146.424,0,0,1,755,536.043a142.057,142.057,0,0,1,103.731,44.416,145.5,145.5,0,0,1,22.755,31.677,126.283,126.283,0,0,1,6.828,15A153.139,153.139,0,0,1,896.691,660C897.587,666.737,897.593,673.453,897.91,679.707Z" transform="translate(-703.82 -535.697)"/><path class="e" d="M898.156,679.483c-1.976-12.9-16.52-40-33.028-57.2-24.239-25.263-69.366-55.378-146.7-55.378-3.8,0-7.708.073-11.623.217,2.076-10.164,6-20.417,13.535-26.854a148.446,148.446,0,0,1,34.943-4.222,145.168,145.168,0,0,1,55.653,11.122,143.239,143.239,0,0,1,48.078,33.294,146.864,146.864,0,0,1,23.039,32.214,121.8,121.8,0,0,1,6.576,14.545A155.257,155.257,0,0,1,896.985,660C897.875,666.783,897.681,673.466,898.156,679.483Z" transform="translate(-704.113 -535.697)"/><path class="l" d="M898.455,678.8c-2.25-14.675-17.9-41.764-32.543-57.03-24.329-25.358-69.614-55.585-147.18-55.585-3.528,0-7.152.063-10.785.187,2.125-9.582,5.557-20.007,12.7-26.151a150.122,150.122,0,0,1,34.88-4.344,146.278,146.278,0,0,1,55.717,11.244,143.919,143.919,0,0,1,48.078,33.295,148.015,148.015,0,0,1,23.039,32.214A118.1,118.1,0,0,1,888.9,627.09a158.773,158.773,0,0,1,8.382,32.865C898.166,666.645,897.846,673.145,898.455,678.8Z" transform="translate(-704.412 -535.653)"/><path class="m" d="M886.641,630.985a1.952,1.952,0,0,1-3.416,1.808,130.619,130.619,0,0,0-10.685-12.83c-25.055-26.112-71.6-57.24-151.063-57.24l-1.12,0a1.955,1.955,0,0,1-1.856-2.59c1.6-4.654,3.849-9.315,7.1-12.689a1.929,1.929,0,0,1,.955-.534,143.906,143.906,0,0,1,31.714-3.737A141.513,141.513,0,0,1,811.9,554a138.1,138.1,0,0,1,46.26,32.038c7.333,7.733,20.78,23.84,28.432,44.816Z" transform="translate(-707.158 -537.571)"/></g><g transform="translate(116.745 139.166)"><path class="a" d="M738.473,868.966c1.172-.315,73.777-20.126,106.294-144.029,28.888,27.071,34.62,55.149,34.62,55.149s-17.08,34.236-42.306,60.4c-10.787,11.176-23.053,20.882-36.114,25.81A143.292,143.292,0,0,1,738.473,868.966Z" transform="translate(-737.445 -724.515)"/><path class="b" d="M763.4,871.285a144.153,144.153,0,0,1-25.33-2.25l-.989-.177.97-.261c.769-.206,19.1-5.29,41.3-25.617,20.3-18.591,48.025-54.2,64.836-118.251l.1-.364.275.258c28.609,26.81,34.629,54.986,34.687,55.268l.016.076-.035.069c-.171.342-17.385,34.566-42.345,60.453-12.3,12.74-24.474,21.441-36.2,25.864A143.257,143.257,0,0,1,763.4,871.285Zm-24.315-2.527a143.111,143.111,0,0,0,61.462-2.831c11.637-4.393,23.76-13.058,36.01-25.749,24.371-25.275,41.343-58.516,42.231-60.272-.359-1.626-6.723-28.749-34.263-54.7-7.419,28.155-17.541,53.192-30.089,74.424a189.949,189.949,0,0,1-34.781,43.679C759.89,861.408,743.15,867.474,739.082,868.758Z" transform="translate(-737.078 -724.365)"/><path class="c" d="M764.007,871.663a173.324,173.324,0,0,1-24.714-2.14c4.653-1.359,17.3-6.391,30.1-16.011,3.554-2.67,7.292-5.742,11.143-9.269,20.272-18.566,47.915-54.01,64.808-117.589,26.369,25.115,32.932,51.12,33.55,53.794-1.49,2.926-18.244,35.3-42.082,60.02-12.191,12.631-24.04,21.9-35.629,26.277A143.723,143.723,0,0,1,764.007,871.663Z" transform="translate(-737.66 -724.967)"/><path class="d" d="M764.153,872.117c-4.193,0-10.153-.286-15.6-.854-3.142-.327-6.087-.86-8.49-1.2,5.126-1.334,18.979-7.315,30.078-15.672,3.529-2.657,7.237-5.707,11.051-9.2,20.184-18.485,47.74-53.736,64.71-116.812,24.9,24.108,31.575,48.665,32.483,52.435-2.29,4.469-18.619,35.541-41.854,59.639C824.42,853,812.869,862.852,801.386,867.2A145.1,145.1,0,0,1,764.153,872.117Z" transform="translate(-737.863 -725.421)"/><path class="e" d="M764.423,872.574c-3.73,0-10.024-.287-15.553-.848-2.994-.3-5.764-.857-7.779-1.1,5.594-1.433,19.982-7.9,29.724-15.234,3.546-2.669,7.271-5.733,11.1-9.241,20.1-18.4,47.56-53.449,64.605-116.027,23.444,23.073,30.175,46.04,31.421,51.07-2.308,4.474-18.7,35.48-41.626,59.257-12.029,12.464-23.28,22.893-34.661,27.21A146.07,146.07,0,0,1,764.423,872.574Z" transform="translate(-738.133 -725.878)"/><path class="n" d="M764.78,873.034c-3.295,0-9.973-.295-15.52-.846-2.718-.27-5.191-.833-6.81-1,6.007-1.473,20.817-8.516,29.272-14.9,3.525-2.663,7.213-5.706,11.006-9.179,20-18.32,47.375-53.159,64.5-115.234,22.436,22.454,29.11,44.784,30.363,49.7-2.326,4.479-18.779,35.417-41.4,58.873-11.948,12.38-22.954,23.406-34.233,27.691A146.571,146.571,0,0,1,764.78,873.034Z" transform="translate(-738.49 -726.337)"/><path class="o" d="M877.586,781.565c-.022.045-.049.094-.08.148-2.7-8.38-10.406-27.237-29.339-46.188-17.118,62.077-45.4,95.328-65.4,113.646-3.793,3.475-8.247,6.652-11.771,9.315-6,4.533-20,10.033-26.986,13a6.143,6.143,0,0,0-1.559-.3c6.008-1.471,20.817-8.514,29.273-14.9,3.528-2.663,7.214-5.7,11.006-9.177,20-18.319,47.376-53.159,64.5-115.231C869.659,754.323,876.335,776.655,877.586,781.565Z" transform="translate(-738.49 -726.338)"/><path class="p" d="M788.946,871.9a1.792,1.792,0,0,1-1.244-3.22l.049-.036c3.9-2.951,7.783-6.185,11.526-9.612,18.468-16.914,43.056-47.424,60.626-99.242a3.918,3.918,0,0,1,6.881-1.036,110.022,110.022,0,0,1,12.132,21.391,15.29,15.29,0,0,1-.878,13.593c-6.694,11.582-19.522,31.99-35.307,48.361-11.912,12.341-21.8,22.1-31.294,25.84A139.756,139.756,0,0,1,788.946,871.9Z" transform="translate(-750.195 -732.98)"/></g><g transform="translate(52.05 110.802)"><path class="a" d="M649.774,828.773c78.668-73.893,130.584-140.686,129.389-141.945a158.568,158.568,0,0,1,42.285,28.088l0,0c-32.517,123.9-105.122,143.714-106.294,144.029l-.016,0A141.986,141.986,0,0,1,649.774,828.773Z" transform="translate(-649.434 -686.134)"/><path class="b" d="M715.022,858.927H715A142.735,142.735,0,0,1,649.51,828.7l-.2-.162.186-.174c78.133-73.391,128.845-138.48,129.336-141.676l-.76-.8,1.062.491a159.443,159.443,0,0,1,42.344,28.129l.1.091-.031.132c-7.427,28.3-17.584,53.465-30.185,74.788A189.947,189.947,0,0,1,756.581,833.2c-22.276,20.4-40.712,25.512-41.486,25.72Zm-65.031-30.413a142.276,142.276,0,0,0,65.025,29.96c1.4-.386,19.467-5.649,41.262-25.608,20.285-18.578,47.988-54.149,64.8-118.122a158.932,158.932,0,0,0-41.863-27.835C777.094,692.08,726.663,756.469,649.991,828.514Z" transform="translate(-649.313 -685.886)"/><path class="c" d="M715.33,859.275a144.564,144.564,0,0,1-64.9-29.918c12.783-12.021,25.478-24.24,36.858-35.774,52.717-53.43,88.7-98.44,92.422-105.513a158.448,158.448,0,0,1,41.162,27.393c-7.4,28.064-17.486,53.017-29.988,74.173a189.113,189.113,0,0,1-34.615,43.474C734.884,852.694,717.163,858.757,715.33,859.275Z" transform="translate(-649.607 -686.46)"/><path class="d" d="M715.346,859.552a147.1,147.1,0,0,1-64.5-29.637c12.623-11.884,25.846-24.2,37.032-35.543,52.2-52.9,87.343-96.954,92.223-105.116a157.731,157.731,0,0,1,40.131,26.738c-7.372,27.845-17.4,52.61-29.814,73.612a188.455,188.455,0,0,1-34.491,43.32C735.154,851.944,717.894,858.81,715.346,859.552Z" transform="translate(-649.715 -686.772)"/><path class="e" d="M715.459,859.86c-22.7-4.135-46.043-14.971-64.057-29.307,12.427-11.714,26.1-24.251,37.156-35.453,50.751-51.421,85.659-94.7,91.943-104.671a157,157,0,0,1,39.119,26.09c-7.346,27.625-17.317,52.2-29.638,73.051a187.782,187.782,0,0,1-34.366,43.166C735.214,851.422,718.011,859.1,715.459,859.86Z" transform="translate(-649.862 -687.08)"/><path class="q" d="M715.543,860.168A148.2,148.2,0,0,1,672.9,845.227a146.078,146.078,0,0,1-20.948-14.017c12.213-11.526,26.333-24.285,37.253-35.343,49.28-49.9,84.008-92.448,91.685-104.266a156.316,156.316,0,0,1,38.12,25.447c-7.321,27.405-17.232,51.794-29.463,72.49a187.122,187.122,0,0,1-34.24,43.012C735.271,850.9,718.1,859.38,715.543,860.168Z" transform="translate(-650.007 -687.388)"/><path class="r" d="M724.888,853.749a8.688,8.688,0,0,1-6.2.89,137.754,137.754,0,0,1-33.639-12.657l-.1-.053a8.686,8.686,0,0,1-1.788-13.969c6.747-6.34,15.863-14.978,20.544-19.718,38.277-38.76,67.9-73.233,83.151-92.607a8.685,8.685,0,0,1,11.342-2.051,144.945,144.945,0,0,1,12.467,8.518,8.645,8.645,0,0,1,3,9.381c-6.661,21.868-15.093,41.5-25.131,58.483a177.323,177.323,0,0,1-32.411,40.756A172.172,172.172,0,0,1,724.888,853.749Z" transform="translate(-657.489 -692.834)"/><path class="s" d="M819.012,717.049q-.3,1.13-.61,2.251a156.788,156.788,0,0,0-36.808-24.264c-7.676,11.819-42.4,54.361-91.685,104.266-10.419,10.549-23.748,22.65-35.557,33.746q-1.217-.908-2.4-1.838c12.212-11.527,26.335-24.287,37.252-35.342,49.281-49.9,84.01-92.447,91.685-104.266A156.209,156.209,0,0,1,819.012,717.049Z" transform="translate(-650.007 -687.388)"/></g><g transform="translate(12.3 91.398)"><path class="a" d="M622.577,809.574a142.623,142.623,0,0,1-26.816-40.027c4.789-3.968,11.241-10.644,18.507-18.8,7.341-8.241,15.515-18,23.651-28.011,24.12-29.66,47.95-61.548,48.933-62.851,32.145,3.09,57.74,10.434,78.1,19.852a.026.026,0,0,1,.015.01C766.16,681,714.244,747.8,635.576,821.691A143.72,143.72,0,0,1,622.577,809.574Z" transform="translate(-595.487 -659.647)"/><path class="b" d="M635.488,821.9l-.152-.125a144.453,144.453,0,0,1-13.019-12.136,142.715,142.715,0,0,1-26.858-40.091l-.069-.156.13-.108c4.453-3.688,10.672-10.006,18.484-18.778,6.689-7.509,14.644-16.931,23.645-28,21.279-26.168,42.594-54.4,48.62-62.436l.383-.51.125.013c29.479,2.834,55.765,9.513,78.126,19.852h.044l.081.075a.318.318,0,0,1,.086.239c-.079,2.711-51.089,68.393-129.482,142.028Zm-39.55-52.378a142.289,142.289,0,0,0,26.7,39.81,144.123,144.123,0,0,0,12.826,11.971c77.759-73.06,128.323-137.859,129.185-141.5-22.271-10.286-48.443-16.938-77.795-19.772l-.232.308C680.6,668.375,659.28,696.618,638,722.791c-9,11.078-16.964,20.5-23.657,28.018C606.588,759.513,600.4,765.809,595.937,769.526Z" transform="translate(-595.389 -659.563)"/><path class="c" d="M635.569,821.75a152.819,152.819,0,0,1-12.949-11.959,146.051,146.051,0,0,1-26.83-39.983,181.126,181.126,0,0,0,19.01-18.354c6.695-7.516,14.659-16.948,23.671-28.034,21.283-26.171,42.609-54.423,48.639-62.459l.083-.111c29.024,2.825,54.925,9.392,77,19.525-1.588,3.084-14.463,20-35.843,44.524C708.616,747.532,676.523,783.248,635.569,821.75Z" transform="translate(-595.494 -659.901)"/><path class="d" d="M635.438,821.855a161.275,161.275,0,0,1-12.769-11.87A146.187,146.187,0,0,1,596,770.618a192.4,192.4,0,0,0,19.336-18.474c6.7-7.524,14.673-16.965,23.69-28.058,21.126-25.978,42.291-54,48.511-62.288,28.5,2.808,53.975,9.241,75.738,19.124-2.528,4.084-14.671,20-35.4,43.777C708.244,747.216,676.176,783.522,635.438,821.855Z" transform="translate(-595.55 -660.15)"/><path class="e" d="M635.3,821.952a169.616,169.616,0,0,1-12.6-11.667,147.991,147.991,0,0,1-26.52-39.064c4.423-3.845,12.48-10.267,19.7-18.378,6.708-7.531,14.685-16.979,23.71-28.081,20.938-25.748,41.982-53.593,48.3-62.005,27.963,2.789,53,9.082,74.439,18.709-3,4.523-14.434,19.548-34.917,43.044C707.887,746.909,675.828,783.782,635.3,821.952Z" transform="translate(-595.597 -660.403)"/><path class="t" d="M635.146,822.037c-3.812-3.246-9.04-7.958-12.491-11.6a149.235,149.235,0,0,1-26.3-38.7c4.4-3.877,13.045-10.3,20.08-18.2,6.712-7.536,14.7-16.991,23.73-28.1,20.786-25.56,41.78-53.328,48.087-61.722,27.417,2.769,52.012,8.92,73.123,18.288-3.879,5.642-15.725,20.873-34.419,42.315C707.527,746.6,675.456,784.038,635.146,822.037Z" transform="translate(-595.642 -660.655)"/><path class="u" d="M644.92,807.748a7.016,7.016,0,0,1-9.978-.173l-.043-.045A138.579,138.579,0,0,1,616.7,783.392a7.046,7.046,0,0,1,1.423-8.925,120.131,120.131,0,0,0,10.759-10.487c6.813-7.649,14.894-17.219,24.018-28.443,16.488-20.277,33.161-42.006,42.479-54.287a7.024,7.024,0,0,1,6.526-2.722,244.06,244.06,0,0,1,39.263,8.446,7.025,7.025,0,0,1,3.369,11.148c-5.212,6.4-11.84,14.309-19.933,23.592q-1.907,2.188-3.976,4.567C702.856,746.708,676.945,776.483,644.92,807.748Z" transform="translate(-600.73 -664.532)"/><path class="o" d="M617.431,756.926c6.712-7.536,14.7-16.992,23.73-28.1,20.786-25.561,41.78-53.328,48.087-61.722,26.3,2.655,49.988,8.431,70.509,17.165.633-.868,1.174-1.628,1.608-2.26-21.112-9.368-45.706-15.52-73.123-18.288-6.307,8.395-27.3,36.162-48.087,61.722-9.034,11.113-17.018,20.568-23.73,28.1-7.035,7.9-15.7,14.276-20.1,18.152.467,1.006.949,2,1.439,3C602.108,770.81,610.622,764.569,617.431,756.926Z" transform="translate(-595.635 -660.655)"/></g><g transform="translate(0 110.214)"><path class="a" d="M591.347,776.191a143.187,143.187,0,0,1-8.579-91.033c-5.662,39.337,26.8,72.553,27.086,72.231C602.588,765.547,596.136,772.222,591.347,776.191Z" transform="translate(-578.772 -685.107)"/><path class="b" d="M591.192,776.532l-.12-.269a144.051,144.051,0,0,1-8.592-91.174l.44.083c-2.889,20.072,4.357,38.4,10.944,50.237,7.18,12.9,15.315,21.379,15.994,21.758l-.08.2.175.154-.034.038-.033.037c-7.8,8.75-14.009,15.058-18.465,18.751Zm-9.185-87.19a143.631,143.631,0,0,0,9.354,86.467c4.4-3.686,10.489-9.876,18.092-18.4a44.22,44.22,0,0,1-3.187-3.358C599.776,746.556,579.57,720.5,582.007,689.342Z" transform="translate(-578.703 -685.089)"/><path class="c" d="M591.24,777.958a147.832,147.832,0,0,1-11.805-46.893,151.881,151.881,0,0,1,.74-29.9c.406-3.3,1.182-6.505,1.675-9.609-1.185,9.511.885,19.528,2.729,25.841,5.533,18.94,16.863,33.37,21.43,38.642a39.782,39.782,0,0,0,2.891,3.1C601.707,767.2,595.526,774.3,591.24,777.958Z" transform="translate(-578.785 -686.789)"/><path class="d" d="M591.116,777.662a152.635,152.635,0,0,1-11.685-46.72,156.617,156.617,0,0,1,.749-29.778c.4-3.4,1.344-6.608,1.676-9.609-1.489,7.031.826,21.677,2.083,25.975,5.649,19.318,17.273,33.992,21.567,38.949,1.029,1.187,1.841,2.077,2.465,2.7C601.379,766.537,595.216,774.067,591.116,777.662Z" transform="translate(-578.79 -686.789)"/><path class="e" d="M590.994,778.4a148.637,148.637,0,0,1-7.544-22.487,137.725,137.725,0,0,1-3.966-23.943,159.881,159.881,0,0,1,.756-29.713c.256-2.383,1.109-4.611,1.256-6.693-.8,6.612,1.095,20.744,1.878,23.4,5.762,19.518,17.561,34.321,21.651,39.042.815.942,1.492,1.693,2.052,2.278C601.064,766.974,594.892,774.9,590.994,778.4Z" transform="translate(-578.805 -687.841)"/><path class="v" d="M590.8,777.982a165.947,165.947,0,0,1-7.86-23.789,148.559,148.559,0,0,1-3.613-22.509A158.746,158.746,0,0,1,580.1,702a45.945,45.945,0,0,1,1.243-6.721c-.97,5.019.914,22.5,1.249,23.638,5.851,19.744,17.85,34.717,21.771,39.244.628.725,1.171,1.335,1.647,1.848C600.553,766.064,594.485,774.606,590.8,777.982Z" transform="translate(-578.763 -687.767)"/><path class="w" d="M596.764,779.62a2.982,2.982,0,0,1-5.152-.912c-1.325-3.9-2.66-8.286-3.8-12.955a145.424,145.424,0,0,1-3.524-21.958q-.054-.65-.1-1.3a121.071,121.071,0,0,0,16.881,28.064,2.973,2.973,0,0,1-.024,3.76c-1.267,1.538-2.53,3.115-3.772,4.666Z" transform="translate(-580.144 -700.179)"/><path class="x" d="M606.417,760.007c-5.456,6.057-11.527,14.6-15.208,17.974-.237-.57-.479-1.162-.722-1.771,3.69-4.031,8.8-11.025,13.464-16.2-.475-.511-1.04-1.1-1.645-1.847-26.7-32.931-22.023-56.024-20.593-62.731v-.009c.014-.045.023-.094.036-.139-.969,5.017.915,22.5,1.251,23.636,5.851,19.744,17.848,34.715,21.771,39.243C605.4,758.887,605.941,759.5,606.417,760.007Z" transform="translate(-579.169 -687.768)"/></g><g transform="translate(3.102 31.284)"><path class="a" d="M583.887,657.352c0-.009,0-.019,0-.028A142.16,142.16,0,0,1,624.627,586.5q3.947-3.744,8.1-7.127c-35.565,58.045,1.179,121.11,1.9,122.2-8.136,10.009-16.31,19.77-23.651,28.011C610.685,729.9,578.225,696.688,583.887,657.352Z" transform="translate(-582.993 -578.371)"/><path class="b" d="M610.884,729.451c-.43,0-3.477-3.513-3.508-3.549-6.783-7.828-28.544-35.936-23.793-68.94l.011-.062a142.442,142.442,0,0,1,40.8-70.92c2.626-2.492,5.356-4.893,8.113-7.138l1.02-.83-.686,1.121c-35.576,58.062,1.495,121.354,1.891,121.956l.091.137-.1.128c-9,11.078-16.964,20.5-23.657,28.018l-.067.075Zm20.892-149.43c-2.4,2-4.78,4.105-7.077,6.285a142.013,142.013,0,0,0-40.672,70.71l-.013.058c-5.532,38.475,24.783,69.9,26.844,71.851,6.636-7.457,14.512-16.785,23.412-27.731C632.282,697.809,598.021,636.65,631.776,580.022Z" transform="translate(-582.911 -578.013)"/><path class="c" d="M610.928,728.65a102.021,102.021,0,0,1-15.619-21.539c-6.464-11.7-14.216-29.868-11.387-49.671l.013-.037,0-.052a139.015,139.015,0,0,1,23.374-51.107c5.172-6.969,11.451-13.23,17.8-19.256,1.659-1.574,5.913-6.129,7.638-7.615-5.4,7.417-9.59,17.5-11.7,24.666a107.185,107.185,0,0,0-3.328,15.5,124.822,124.822,0,0,0,1.709,42.434,144.113,144.113,0,0,0,14.4,39.538C625.149,712.185,617.447,721.312,610.928,728.65Z" transform="translate(-583.019 -578.371)"/><path class="d" d="M610.917,727.665a103.46,103.46,0,0,1-15-20.88c-6.405-11.592-14.767-29.638-11.989-49.235l.011-.032.015-.115a145.613,145.613,0,0,1,11.206-31.239,123.935,123.935,0,0,1,12.17-19.921c5.2-6.866,12-12.82,18.266-18.768.735-.7,6.423-7.419,7.176-8.1-7.857,10.035-14.159,29.09-15.686,40.072a125.562,125.562,0,0,0,1.712,42.661,145.115,145.115,0,0,0,14.244,39.332C624.687,711.7,617.249,720.515,610.917,727.665Z" transform="translate(-583.033 -578.371)"/><path class="e" d="M610.912,726.727a104.4,104.4,0,0,1-14.4-20.209c-6.346-11.485-15.316-29.444-12.587-48.834l.021-.108.01-.08c3.771-15.969,12.078-35.106,23.551-51.181a127.222,127.222,0,0,1,13.2-15.84c3.985-4,8.274-7.458,11.852-10.882-7.508,9.274-14.747,29.873-16.132,39.877a126.36,126.36,0,0,0,1.723,42.831,146.056,146.056,0,0,0,14.094,39.124C624.23,711.26,617.059,719.766,610.912,726.727Z" transform="translate(-583.045 -578.429)"/><path class="y" d="M610.906,725.834a105,105,0,0,1-13.8-19.53c-6.294-11.392-15.9-29.308-13.194-48.516l.02-.092.008-.068A139.255,139.255,0,0,1,607.2,606.607a120.479,120.479,0,0,1,13.513-16.02c2.561-2.521,5.038-4.962,7.482-7.136,1.376-1.224,2.865-2.246,4.049-3.437-7.218,8.492-15.227,30.47-16.474,39.491a127.17,127.17,0,0,0,1.728,43.045,148.491,148.491,0,0,0,13.945,38.912C623.767,710.874,616.863,719.067,610.906,725.834Z" transform="translate(-583.051 -578.539)"/><path class="j" d="M626.841,662.547a148.566,148.566,0,0,0,13.944,38.916c-7.671,9.411-14.575,17.607-20.534,24.372-.364-.4-.781-.865-1.251-1.408,5.743-6.555,12.325-14.383,19.6-23.3a148.446,148.446,0,0,1-13.944-38.911c-2.393-11.473-2.852-26.423-.574-42.894,1.027-7.438,8.79-28.251,16.427-38.308a9.391,9.391,0,0,0,1.081-1c-7.219,8.491-15.226,30.469-16.472,39.489A127.111,127.111,0,0,0,626.841,662.547Z" transform="translate(-592.397 -578.539)"/><path class="z" d="M620.141,720.284a8.578,8.578,0,0,1-13.874-.981c-.84-1.365-1.689-2.811-2.532-4.338-5.624-10.178-15.024-27.19-12.6-44.981l.027-.128a143.953,143.953,0,0,1,10.6-29.757c1.9-3.842,7.012-11.8,10.351-16.855a.849.849,0,0,1,1.528.685,54.575,54.575,0,0,0-1.28,6.1,131.353,131.353,0,0,0,1.791,44.88,157.712,157.712,0,0,0,10.536,32.382,8.573,8.573,0,0,1-1.22,9Q621.773,718.336,620.141,720.284Z" transform="translate(-584.969 -589.801)"/></g><g transform="translate(37.18 4.111)"><path class="a" d="M646.787,691.687c-.716-1.087-37.461-64.152-1.9-122.2a141.89,141.89,0,0,1,55.131-27.719c-9.655,8.082-14.3,18.345-15.967,28.972-4.371,27.812,11.664,58.094,11.664,58.094C694.737,630.139,670.907,662.026,646.787,691.687Z" transform="translate(-629.211 -541.313)"/><path class="b" d="M646.7,691.9l-.169-.256c-.4-.6-37.634-64.117-1.9-122.437l.05-.057A141.322,141.322,0,0,1,699.9,541.389l.949-.239-.751.629c-8.682,7.267-14.028,16.968-15.889,28.835-4.308,27.417,11.48,57.652,11.64,57.954l.067.126-.394.523c-6.027,8.033-27.346,36.276-48.629,62.448Zm-1.706-122.426c-34.373,56.143-.88,117.1,1.754,121.656,21.211-26.1,42.41-54.18,48.417-62.185l.223-.3c-1.118-2.175-15.81-31.449-11.622-58.107,1.827-11.639,6.975-21.216,15.31-28.482A140.867,140.867,0,0,0,644.992,569.477Z" transform="translate(-629.141 -541.15)"/><path class="c" d="M647.122,690.5A143.973,143.973,0,0,1,633.129,651.8a123.961,123.961,0,0,1-2.137-38.813c1.692-15.426,6.085-30.355,14.116-43.494A141.21,141.21,0,0,1,671.3,552.532a146.3,146.3,0,0,1,15.838-6.773c4.4-1.565,8.814-2.82,13.1-3.989-8.592,5.713-14.868,17.775-16.609,28.868-4.09,26.028,9.713,54.514,11.538,58.13l-.057.076C689.145,636.8,668.186,664.563,647.122,690.5Z" transform="translate(-629.451 -541.313)"/><path class="d" d="M647.471,689.3a143.665,143.665,0,0,1-13.443-37.643,123.306,123.306,0,0,1-2.127-38.6c1.677-15.288,5.5-30.541,13.448-43.567a141.037,141.037,0,0,1,26.191-16.957,148.049,148.049,0,0,1,15.838-6.773c4.5-1.589,8.987-2.787,13.1-3.989-8.072,4.409-15.656,18.457-17.273,28.764-4.011,25.528,9.118,53.519,11.415,58.163C688.507,636.843,668.107,663.85,647.471,689.3Z" transform="translate(-629.691 -541.313)"/><path class="e" d="M647.827,688.091a143.776,143.776,0,0,1-12.9-36.568,122.613,122.613,0,0,1-2.116-38.392c1.662-15.15,4.923-30.726,12.779-43.641a139.884,139.884,0,0,1,26.087-16.906,150.946,150.946,0,0,1,15.942-6.824c4.617-1.622,9.161-2.764,13.1-3.989-8.592,4.9-16.437,19.093-17.938,28.659-3.93,25,8.311,52.08,11.294,58.194C688,636.709,668.046,663.116,647.827,688.091Z" transform="translate(-629.931 -541.313)"/><path class="aa" d="M648.19,686.87a143,143,0,0,1-12.366-35.484,121.945,121.945,0,0,1-2.106-38.182c1.647-15.011,4.342-30.908,12.11-43.714a140.493,140.493,0,0,1,26.036-16.881,151,151,0,0,1,15.992-6.849c4.721-1.646,9.306-2.742,13.1-3.989-7.929,3.875-17.211,19.689-18.6,28.555-3.911,24.888,8.221,52.085,11.174,58.222C687.573,636.476,668.01,662.351,648.19,686.87Z" transform="translate(-630.171 -541.313)"/><path class="j" d="M687.474,570.324c-3.909,24.891,8.223,52.087,11.177,58.225-5.958,7.927-25.523,33.8-45.344,58.32-.247-.48-.507-1-.775-1.542,19.39-24.054,38.269-49.017,44.1-56.778-2.954-6.138-13.969-33.234-10.06-58.125,1.278-8.115,10.214-23.367,18.058-28.265,1.421-.408.175.027,1.444-.39C698.149,545.647,688.868,561.46,687.474,570.324Z" transform="translate(-635.289 -541.313)"/><path class="ab" d="M655.185,676.688a3.6,3.6,0,0,1-6.2-.977,141.9,141.9,0,0,1-5.981-20.652,116.588,116.588,0,0,1-2.025-36.5c1.451-13.228,3.847-28.246,10.546-40.115a3.532,3.532,0,0,1,.887-1.034,133.185,133.185,0,0,1,23.721-15.2c1.568-.763,3.055-1.468,4.476-2.121a1.811,1.811,0,0,1,2.376,2.444,44.8,44.8,0,0,0-4.028,11.723c-3.465,22.045,4.6,45.188,9.43,56.5a3.572,3.572,0,0,1-.439,3.564C681.409,642.985,668.869,659.437,655.185,676.688Z" transform="translate(-632.089 -546.085)"/></g></g></svg>