<svg xmlns="http://www.w3.org/2000/svg" width="65" height="65" viewBox="0 0 65 65"><defs><style>.a{fill:#fff;opacity:0;}.b{fill:#404040;stroke:#404040;}</style></defs><g transform="translate(-17 -10)"><rect class="a" width="65" height="65" transform="translate(17 10)"/><g transform="translate(-19.41 29.601)"><path class="b" d="M38.826,8.988a.616.616,0,1,0,1.232,0V4.264a.619.619,0,0,0-.616-.616H34.718a.616.616,0,0,0,0,1.232h3.233L10.744,32.087H7.493a.609.609,0,0,0-.437.178L1.693,37.628a.616.616,0,0,0,.432,1.053h2.9v2.9a.615.615,0,0,0,.381.567.608.608,0,0,0,.672-.135l5.363-5.363a.608.608,0,0,0,.178-.437V32.956l27.207-27.2Z" transform="translate(48.094 -10)"/><path class="b" d="M37.316,5.339a.616.616,0,0,0,1.232,0V.616A.619.619,0,0,0,37.932,0H33.209a.616.616,0,1,0,0,1.232h3.233L9.234,28.439H5.983a.609.609,0,0,0-.437.178L.183,33.98a.616.616,0,0,0,.432,1.053h2.9v2.9A.615.615,0,0,0,3.9,38.5a.608.608,0,0,0,.672-.135L9.931,33a.608.608,0,0,0,.178-.437V29.307l27.207-27.2Z" transform="translate(49.604 32.197) rotate(-90)"/></g></g></svg>