<svg xmlns="http://www.w3.org/2000/svg" width="65" height="65" viewBox="0 0 65 65"><defs><style>.a{fill:#fff;opacity:0;}.b{fill:#343434;}.c{fill:#ff6200;}</style></defs><g transform="translate(-17 -10)"><rect class="a" width="65" height="65" transform="translate(17 10)"/><g transform="translate(26 19)"><circle class="b" cx="23" cy="23" r="23" transform="translate(0.44 0.301)"/><path class="c" d="M22.494,28.748c1.61-1.329,3.187-2.748,4.662-4.234l.687-.687c-.315-.327-.631-.653-.935-.957A64.078,64.078,0,0,0,7.561,9.57,23.327,23.327,0,0,0,3.53,19.66a28.423,28.423,0,0,1,10.383,2.759A28.768,28.768,0,0,1,22.494,28.748Z" transform="translate(-3.282 0.363)"/><path class="c" d="M25.713,18.875c.056.056.124.124.191.18A64.4,64.4,0,0,0,31.929,8.087,23.327,23.327,0,0,0,18.3,3.368a25.826,25.826,0,0,0,1.881,7.286A25.607,25.607,0,0,0,25.713,18.875Z" transform="translate(5.606 -3.368)"/><path class="c" d="M30.238,21.891a25.307,25.307,0,0,0,7.32,1.881,23.38,23.38,0,0,0-7-16.206,66.891,66.891,0,0,1-6.126,10.9A25.6,25.6,0,0,0,30.238,21.891Z" transform="translate(9.291 -0.842)"/><path class="c" d="M19.806,25.184a25.839,25.839,0,0,0-8.21-5.541,25.746,25.746,0,0,0-8.21-1.96c0,.169-.011.338-.011.5A23.263,23.263,0,0,0,8.42,32.7a64.206,64.206,0,0,0,11.87-7.027C20.121,25.511,19.964,25.342,19.806,25.184Z" transform="translate(-3.375 5.245)"/><path class="c" d="M27.608,25.361c1.137-1.273,2.219-2.6,3.243-3.953A28.664,28.664,0,0,1,22.044,3.445,23.353,23.353,0,0,0,7.235,10.9,66.9,66.9,0,0,1,18,17.106,69.088,69.088,0,0,1,27.608,25.361Z" transform="translate(-1.052 -3.321)"/><path class="c" d="M21.192,20.056A67.074,67.074,0,0,1,31.925,36.543,23.382,23.382,0,0,0,39.38,21.712a28.588,28.588,0,0,1-14.73-5.856C23.568,17.286,22.4,18.7,21.192,20.056Z" transform="translate(7.345 4.145)"/><path class="c" d="M16.545,24.814a28.54,28.54,0,0,1,5.743,15.271,23.226,23.226,0,0,0,10.079-4.032,64,64,0,0,0-10.383-16.24A67.317,67.317,0,0,1,16.545,24.814Z" transform="translate(4.549 6.527)"/><path class="c" d="M19.51,24.068A67.343,67.343,0,0,1,7.8,31.14a23.339,23.339,0,0,0,16.341,6.644c.169,0,.338,0,.507-.011a25.747,25.747,0,0,0-1.96-8.21A25.4,25.4,0,0,0,19.51,24.068Z" transform="translate(-0.714 9.087)"/></g></g></svg>