<svg xmlns="http://www.w3.org/2000/svg" xmlns:xlink="http://www.w3.org/1999/xlink" width="65" height="65" viewBox="0 0 65 65"><defs><style>.a{fill:#dbdbdb;}.b{fill:#fff;opacity:0;}.c{fill:#242424;}.d{fill:#efeaea;}.e{clip-path:url(#a);}.f{fill:#be3131;}</style><clipPath id="a"><path class="a" d="M35.367,31.825c-.174-.429-.358-.851-.558-1.27a13.384,13.384,0,0,0-.9-1.612,10.759,10.759,0,0,1-.835-10.184c.079-.179.15-.364.216-.551a8.321,8.321,0,0,0,0-5.324,7.246,7.246,0,0,0-1.257-2.244A6.316,6.316,0,0,0,29.98,9a5.468,5.468,0,0,0-4.91,0,6.327,6.327,0,0,0-2.057,1.644,7.033,7.033,0,0,0-1.254,2.244,8.227,8.227,0,0,0,0,5.324c.063.187.137.374.213.551a10.781,10.781,0,0,1-.832,10.184,13.062,13.062,0,0,0-.9,1.612,23.388,23.388,0,0,0-1.8,5.482,37.031,37.031,0,0,0,0,14.259,23.148,23.148,0,0,0,1.8,5.482,13.9,13.9,0,0,0,3.485,4.576H31.3a18.713,18.713,0,0,1,4.07-28.529Z" transform="translate(-17.738 -8.414)"/></clipPath></defs><g transform="translate(-17 -10)"><rect class="b" width="65" height="65" transform="translate(17 10)"/><g transform="translate(27.077 14.287)"><path class="c" d="M67.1,58.652A16.845,16.845,0,1,1,50.25,41.808,16.846,16.846,0,0,1,67.1,58.652ZM53.05,50.81a1.931,1.931,0,0,0-.643-.45,2.129,2.129,0,0,0-.8-.153,2.251,2.251,0,0,0-.809.166,2.333,2.333,0,0,0-1.22,1.149,2.145,2.145,0,0,0-.208.8,2.055,2.055,0,0,0,.111.806,1.855,1.855,0,0,0,.406.666,1.975,1.975,0,0,0,.643.443,2.034,2.034,0,0,0,.8.153,2.011,2.011,0,0,0,.8-.163,2.171,2.171,0,0,0,.717-.461,2.279,2.279,0,0,0,.506-.688,2.145,2.145,0,0,0,.208-.8,1.969,1.969,0,0,0-.108-.8,1.853,1.853,0,0,0-.408-.666Zm5.7-2.136a1.813,1.813,0,0,0-.643-.443,1.95,1.95,0,0,0-.8-.153,2.1,2.1,0,0,0-.8.158,2.342,2.342,0,0,0-1.22,1.154,2.184,2.184,0,0,0-.208.79,2.053,2.053,0,0,0,.108.809,1.834,1.834,0,0,0,.408.664,1.755,1.755,0,0,0,.643.445,1.981,1.981,0,0,0,.8.158,2.2,2.2,0,0,0,.8-.166,2.3,2.3,0,0,0,.717-.464,2.216,2.216,0,0,0,.506-.688,2.116,2.116,0,0,0,.205-.8,1.981,1.981,0,0,0-.108-.8,1.9,1.9,0,0,0-.408-.666Zm.448,7.721a1.82,1.82,0,0,0-.643-.445,2.071,2.071,0,0,0-.8-.155,2.169,2.169,0,0,0-.806.163,2.327,2.327,0,0,0-.717.464,2.283,2.283,0,0,0-.5.688,2.183,2.183,0,0,0-.208.8,1.933,1.933,0,0,0,.111.8,1.888,1.888,0,0,0,.406.669,1.914,1.914,0,0,0,.643.44,2.015,2.015,0,0,0,.8.155A2.251,2.251,0,0,0,59,59.347a2.252,2.252,0,0,0,.5-.685,2.2,2.2,0,0,0,.211-.8,2.071,2.071,0,0,0-.111-.8,1.821,1.821,0,0,0-.406-.669Z" transform="translate(-22.84 -19.288)"/><path class="d" d="M35.367,31.825c-.174-.429-.358-.851-.558-1.27a13.384,13.384,0,0,0-.9-1.612,10.759,10.759,0,0,1-.835-10.184c.079-.179.15-.364.216-.551a8.321,8.321,0,0,0,0-5.324,7.246,7.246,0,0,0-1.257-2.244A6.316,6.316,0,0,0,29.98,9a5.468,5.468,0,0,0-4.91,0,6.327,6.327,0,0,0-2.057,1.644,7.033,7.033,0,0,0-1.254,2.244,8.227,8.227,0,0,0,0,5.324c.063.187.137.374.213.551a10.781,10.781,0,0,1-.832,10.184,13.062,13.062,0,0,0-.9,1.612,23.388,23.388,0,0,0-1.8,5.482,37.031,37.031,0,0,0,0,14.259,23.148,23.148,0,0,0,1.8,5.482,13.9,13.9,0,0,0,3.485,4.576H31.3a18.713,18.713,0,0,1,4.07-28.529Z" transform="translate(-17.738 -8.414)"/><g class="e"><path class="f" d="M0,0H10.412V2.6H0Z" transform="translate(4.338 13.015)"/></g></g></g></svg>