<svg xmlns="http://www.w3.org/2000/svg" width="65" height="65" viewBox="0 0 65 65"><defs><style>.a,.b{fill:#fff;}.a{opacity:0;}.c{fill:#343434;}</style></defs><g transform="translate(-17 -10)"><rect class="a" width="65" height="65" transform="translate(17 10)"/><g transform="translate(26 18)"><circle class="b" cx="22.5" cy="22.5" r="22.5" transform="translate(1.494 2)"/><path class="c" d="M27.3,3.375A24.039,24.039,0,1,0,51.223,27.414,23.978,23.978,0,0,0,27.3,3.375ZM41.941,12.7a20.62,20.62,0,0,1,2.6,3.178.425.425,0,0,1,.046.4L42.93,21.057a.458.458,0,0,1-.242.266l-6.614,3.028a.461.461,0,0,1-.483-.069l-6.51-5.5a.475.475,0,0,1-.161-.358V11.13a.462.462,0,0,1,.207-.381l4.417-3.016a.451.451,0,0,1,.4-.058A20.948,20.948,0,0,1,41.941,12.7ZM33.441,47.1a.425.425,0,0,1-.3.277A20.582,20.582,0,0,1,27.3,48.2a20.941,20.941,0,0,1-5.843-.832.478.478,0,0,1-.3-.277l-1.886-4.97a.487.487,0,0,1,.023-.381l2.565-4.889a.465.465,0,0,1,.4-.243H32.325a.451.451,0,0,1,.4.243l2.565,4.889a.487.487,0,0,1,.023.381ZM25.689,11.153v7.293a.475.475,0,0,1-.161.358l-6.522,5.49a.461.461,0,0,1-.483.069l-6.614-3.028a.455.455,0,0,1-.242-.266l-1.656-4.762a.454.454,0,0,1,.046-.4,20.878,20.878,0,0,1,10.6-8.182.451.451,0,0,1,.4.058l4.417,3.016A.383.383,0,0,1,25.689,11.153Zm-18.9,17.2,4.152-3.606a.457.457,0,0,1,.495-.069l6.027,2.751a.462.462,0,0,1,.253.312L19.4,34.359a.555.555,0,0,1-.035.335l-2.668,5.074a.447.447,0,0,1-.414.243l-5.291-.069a.479.479,0,0,1-.368-.185A20.716,20.716,0,0,1,6.63,28.731.507.507,0,0,1,6.791,28.35Zm31.1,11.407-2.657-5.062a.426.426,0,0,1-.035-.335l1.679-6.622a.462.462,0,0,1,.253-.312l6.027-2.751a.481.481,0,0,1,.495.069l4.152,3.606a.469.469,0,0,1,.161.381,20.655,20.655,0,0,1-3.991,11.025.446.446,0,0,1-.368.185l-5.3.069A.5.5,0,0,1,37.892,39.757Z" transform="translate(-3.375 -3.375)"/></g></g></svg>