<svg xmlns="http://www.w3.org/2000/svg" width="65" height="65" viewBox="0 0 65 65"><defs><style>.a,.b{fill:#fff;}.a{opacity:0;}.c{fill:#343434;}</style></defs><g transform="translate(-17 -10)"><rect class="a" width="65" height="65" transform="translate(17 10)"/><g transform="translate(-139 -256)"><circle class="b" cx="22" cy="22" r="22" transform="translate(166 279)"/><path class="c" d="M34,10A24,24,0,1,0,58,34,24,24,0,0,0,34,10ZM49.279,22.389l-1.526-.429L47.7,28.426,42.269,30.6,35.2,25.3V19.2l6-2-.886-1.329a19.285,19.285,0,0,1,8.965,6.518ZM27.686,15.871,26.8,17.2l6,2v6.1l-7.069,5.3L20.3,28.426l-.049-6.466-1.526.429a19.285,19.285,0,0,1,8.965-6.518ZM14.81,34.408l.987,1.249,3.673-4.976,5.585,2.234,3.455,6.91-4.155,5.454L18.3,43.361l-.063,1.582a19.1,19.1,0,0,1-3.424-10.535ZM28.45,52.38l1.5-.555L26.289,46.7l4.191-5.5h7.04l4.193,5.5L38.05,51.822l1.5.555a19.159,19.159,0,0,1-11.1,0Zm21.314-7.437L49.7,43.361l-6.059,1.917-4.155-5.452,3.455-6.912,5.585-2.234L52.2,35.657l.987-1.249a19.047,19.047,0,0,1-3.422,10.535Z" transform="translate(153.898 264.898)"/></g></g></svg>