<svg xmlns="http://www.w3.org/2000/svg" width="65" height="65" viewBox="0 0 65 65"><defs><style>.a{fill:#fff;opacity:0;}.b{fill:#273536;}</style></defs><g transform="translate(-17 -10)"><rect class="a" width="65" height="65" transform="translate(17 10)"/><path class="b" d="M50.423,22.307H48.4V21.4H21.642l-1.919,3.434a.445.445,0,0,1-.706.2c-.3-.1-.3-.5-.2-.706L20.431,21.4H17.2l-1.919,3.434c-.1.3-.5.3-.706.2a.445.445,0,0,1-.2-.706L15.99,21.4H12.759L10.84,24.832a.445.445,0,0,1-.706.2c-.3-.1-.3-.5-.2-.706L11.548,21.4H9.019A2.081,2.081,0,0,0,7.3,22.408L2.96,29.982a1.972,1.972,0,0,0,1.716,2.929H7.5L2.86,47.958a1.8,1.8,0,0,0,1.819,2.323H16.492a1.765,1.765,0,0,0,1.819-1.515L19.625,41.8c5.858,3.736,13.329-2.323,10.5-8.888H42.749a2.761,2.761,0,0,0,2.828-2.424,2.251,2.251,0,0,0-.3-1.414H36.488a.606.606,0,1,1,0-1.211H48.3v-.909h2.02V22.307Zm-30.4,17.471.909-4.645,2.221,2.221a1.643,1.643,0,0,0,2.323-2.323l-2.12-2.12h4.848c3.128,5.252-3.536,10.907-8.181,6.868Z" transform="translate(23.283 6.257)"/></g></svg>