<svg xmlns="http://www.w3.org/2000/svg" width="65" height="65" viewBox="0 0 65 65"><defs><style>.a,.b{fill:#fff;}.a{opacity:0;}.c{fill:#343434;}</style></defs><g transform="translate(-17 -10)"><rect class="a" width="65" height="65" transform="translate(17 10)"/><g transform="translate(25 18)"><path class="b" d="M24,0A24,24,0,1,1,0,24,24,24,0,0,1,24,0Z" transform="translate(0)"/><g transform="translate(0 0)"><path class="c" d="M37,61.121A24.121,24.121,0,1,1,61.121,37,24.148,24.148,0,0,1,37,61.121Zm0-46.034A21.913,21.913,0,1,0,58.913,37,21.939,21.939,0,0,0,37,15.087Z" transform="translate(-12.879 -12.879)"/><path class="c" d="M65.325,53.408C59.606,41.364,49.5,38.592,49.4,38.566l-.652-.173-.147-.66c-2.83-12.791,3.932-23,4.221-23.433l1.83,1.236c-.066.1-6.292,9.542-4.023,21.1,2.508.85,11.336,4.554,16.692,15.828Z" transform="translate(-25.147 -13.377)"/><path class="c" d="M20.209,57.366a18.936,18.936,0,0,1-4.757-.586l.553-2.142c10.27,2.655,21.522-5.9,21.634-5.985L38.99,50.4c-.424.327-9.153,6.963-18.78,6.963Z" transform="translate(-13.78 -25.407)"/><path class="c" d="M70.3,52.863C65.1,37.842,49.9,35.4,49.75,35.377l.322-2.185c.165.025,16.664,2.635,22.317,18.948Z" transform="translate(-25.791 -19.993)"/><path class="c" d="M73.027,37.095C67.192,23.875,53.554,22.1,53.414,22.086l.264-2.2c.609.074,15.029,1.952,21.367,16.311Z" transform="translate(-27.074 -15.334)"/><path class="c" d="M34.888,42.622c-.244-.614-5.858-15.227,4.693-28.134l1.708,1.4c-9.737,11.909-4.4,25.784-4.348,25.921Z" transform="translate(-19.988 -13.442)"/><path class="c" d="M21.207,46.205c-1.155-3.3-4.3-14.917,3.731-25.893l1.782,1.3c-7.389,10.108-4.493,20.819-3.429,23.86Z" transform="translate(-15.241 -15.482)"/><path class="c" d="M27.276,67.854a28.4,28.4,0,0,1-5.432-.528l.419-2.17c15.615,3.018,25.322-8.932,25.418-9.054l1.731,1.373c-.094.117-8.4,10.379-22.136,10.379Z" transform="translate(-16.018 -28.016)"/><path class="c" d="M38.209,77.764a27.616,27.616,0,0,1-3.092-.17l.236-2.2c14.336,1.553,22.72-9.369,22.8-9.478l1.769,1.325c-.343.462-8.041,10.521-21.717,10.521Z" transform="translate(-20.667 -31.453)"/></g></g></g></svg>