<svg xmlns="http://www.w3.org/2000/svg" width="65" height="65" viewBox="0 0 65 65"><defs><style>.a,.b{fill:#fff;}.a{opacity:0;}.c{fill:#383838;}.d{fill:#c91b1b;}</style></defs><g transform="translate(-17 -10)"><rect class="a" width="65" height="65" transform="translate(17 10)"/><g transform="translate(20.334 20.283)"><circle class="b" cx="21.018" cy="21.018" r="21.018" transform="translate(0.387 1.396)"/><path class="c" d="M68.869,18.575H68.9l1.418-5.489-7.8,4.372-.951,4.028L37.4,34.675v0a.965.965,0,0,0-.472.567.949.949,0,0,0,1.382,1.1L62.47,23.157l3.872,1.377,7.9-4.173Z" transform="translate(-16.38 -13.086)"/><path class="d" d="M41.379,30.434a18.095,18.095,0,1,1-2.746-4.982l2.857-1.567h0a21.409,21.409,0,1,0,2.732,4.994Z" transform="translate(-3.1 -13.935)"/><path class="d" d="M37.392,31.281H37.4l2.871-1.567v0a16.146,16.146,0,1,0,3.6,10.154,15.944,15.944,0,0,0-.861-5.185l-2.857,1.567v0a13.221,13.221,0,0,1,.5,3.616,12.983,12.983,0,1,1-3.274-8.585Z" transform="translate(-6.436 -17.272)"/><path class="d" d="M38.988,35.495a11.044,11.044,0,1,0,2.755,4.981h-.012L38.785,42.1a6.916,6.916,0,0,1,.076,1.062,7.838,7.838,0,1,1-7.838-7.84,7.736,7.736,0,0,1,4.993,1.809Z" transform="translate(-9.738 -20.563)"/><path class="d" d="M33.142,43.8l4.324-2.364v0a5.832,5.832,0,0,0-3.148-.91,5.944,5.944,0,1,0,5.941,5.944V46.4l-4.388,2.39h0A2.846,2.846,0,1,1,33.142,43.8Z" transform="translate(-13.035 -23.869)"/></g></g></svg>