<svg xmlns="http://www.w3.org/2000/svg" viewBox="0 0 512 512"><defs><style>.cls-1{fill:#54545b;}.cls-2{fill:#373737;}.cls-3{fill:none;}.cls-4{fill:#1a4687;}</style></defs><g id="Capa_1" data-name="Capa 1"><path class="cls-1" d="M104.47,385.46a74.47,74.47,0,1,1,0-148.93v-30a104.47,104.47,0,1,0,0,208.93Z"/><path class="cls-2" d="M407.53,206.53A104.47,104.47,0,1,0,512,311,104.59,104.59,0,0,0,407.53,206.53ZM333.06,311a74.47,74.47,0,1,1,74.47,74.46A74.55,74.55,0,0,1,333.06,311Z"/><path class="cls-2" d="M407.53,385.46a74.47,74.47,0,1,1,0-148.93v-30a104.47,104.47,0,1,0,0,208.93Z"/><path class="cls-3" d="M178.94,311a74.47,74.47,0,1,0-74.47,74.46A74.55,74.55,0,0,0,178.94,311Z"/><path class="cls-3" d="M407.53,236.53A74.47,74.47,0,1,0,482,311,74.55,74.55,0,0,0,407.53,236.53Z"/><path class="cls-4" d="M147.16,243.86A15,15,0,0,0,175,232.78l-29.19-73.47A15,15,0,1,0,118,170.39Z"/><path class="cls-2" d="M156.19,147.85H104.47a15,15,0,0,0,0,30h51.72a15,15,0,0,0,0-30Z"/><path class="cls-4" d="M419.88,302.48c-.58-.84-57.65-84.08-70.79-150.65a68.77,68.77,0,0,0-67.32-55.3,15,15,0,0,0,0,30A38.21,38.21,0,0,1,292.12,128a38.78,38.78,0,0,1,23.57,18.77,16.8,16.8,0,0,0-1.11,1.6l-28.24,47.54H156.19a15,15,0,0,0,0,30H268.52L226.87,296H104.47a15,15,0,0,0,0,30H235.4a15,15,0,0,0,12.9-7.34L327.13,186c21,64.88,65.88,130.42,68.06,133.57a15,15,0,0,0,24.69-17Z"/><path class="cls-4" d="M156.19,225.87h66.16v-30H156.19a15,15,0,0,0,0,30Z"/><path class="cls-2" d="M104.47,206.53A104.47,104.47,0,1,0,208.94,311,104.59,104.59,0,0,0,104.47,206.53ZM30,311a74.47,74.47,0,1,1,74.47,74.46A74.55,74.55,0,0,1,30,311Z"/><path class="cls-4" d="M222.35,296H104.47a15,15,0,0,0,0,30H222.35Z"/></g></svg>