<svg xmlns="http://www.w3.org/2000/svg" viewBox="0 0 65 65"><rect y="28.98" width="65" height="7.27" rx="1.72" fill="#282d34"/><path d="M14.13,18.69V46.31H7.89a3.14,3.14,0,0,1-3.12-3.12V21.76a3.09,3.09,0,0,1,3.12-3.07Z" fill="#556070"/><rect x="8.95" y="18.69" width="5.18" height="27.62" fill="#282d34"/><path d="M21.48,19.69V45.31a3.24,3.24,0,0,1-3.22,3.22H14.89a1.44,1.44,0,0,1-.46-.05,3.16,3.16,0,0,1-2.76-3.17V19.69a3.12,3.12,0,0,1,2.76-3.17,1.44,1.44,0,0,1,.46-.05h3.37A3.21,3.21,0,0,1,21.48,19.69Z" fill="#556070"/><path d="M14.43,16.52v32a3.16,3.16,0,0,1-2.76-3.17V19.69A3.12,3.12,0,0,1,14.43,16.52Z" fill="#8493b0"/><path d="M50.87,46.31V18.69h6.24a3.14,3.14,0,0,1,3.12,3.12V43.24a3.09,3.09,0,0,1-3.12,3.07Z" fill="#556070"/><rect x="50.87" y="18.69" width="5.18" height="27.62" fill="#282d34"/><path d="M43.52,45.31V19.69a3.24,3.24,0,0,1,3.22-3.22h3.37a1.44,1.44,0,0,1,.46.05,3.16,3.16,0,0,1,2.76,3.17V45.31a3.12,3.12,0,0,1-2.76,3.17,1.44,1.44,0,0,1-.46.05H46.74A3.21,3.21,0,0,1,43.52,45.31Z" fill="#556070"/><path d="M50.57,48.48v-32a3.16,3.16,0,0,1,2.76,3.17V45.31A3.12,3.12,0,0,1,50.57,48.48Z" fill="#8493b0"/></svg>