<svg xmlns="http://www.w3.org/2000/svg" width="65" height="65" viewBox="0 0 65 65"><defs><style>.a,.c{fill:#fff;}.a{opacity:0;}.b{fill:#282928;}.d{fill:#59d2dd;}</style></defs><rect class="a" width="65" height="65"/><circle class="b" cx="20" cy="20" r="20" transform="translate(33 3.716) rotate(45)"/><g transform="translate(33 3.716) rotate(45)"><path class="c" d="M35.537,86.965l-4.168,2.407h0a1.374,1.374,0,0,0,.16.072c.142.062.275.115.408.169.187.08.373.152.56.222l.293.107c.222.08.453.152.675.232h0a.791.791,0,0,1,.152.045,19.836,19.836,0,0,0,4.79.838c.347.018.685.027,1.032.027s.712-.008,1.058-.027c.045,0,.088-.008.133-.008.312-.018.622-.045.933-.08.035,0,.062-.008.1-.008q.48-.053.96-.134l0,0a.318.318,0,0,0,.09-.017c.32-.053.632-.107.942-.179.053-.008.1-.018.142-.027.293-.072.578-.142.862-.214.08-.018.152-.045.232-.062.24-.072.488-.152.738-.232l.328-.107c.195-.072.4-.142.595-.214.152-.062.293-.115.445-.179s.293-.125.445-.187l.293-.134-4.008-2.309Z" transform="translate(-19.317 -51.084)"/><path class="c" d="M17.921,64.618l-6.941-3.8L7.015,63.781v0A20.156,20.156,0,0,0,15.956,73.7l4.6-2.648Z" transform="translate(-5.354 -36.128)"/><path class="d" d="M45.971,70.648l2.488-6.224-6.416-3.646-6.258,3.629,2.56,6.241Z" transform="translate(-21.85 -36.104)"/><path class="c" d="M64.964,64.915l-2.57,6.428,4.426,2.549a20.17,20.17,0,0,0,8.711-9.736l-3.795-3.031Z" transform="translate(-37.107 -36.303)"/><path class="c" d="M90.568,38.912a2.23,2.23,0,0,1-.017-.257c-.053-.508-.125-1.008-.2-1.5-.027-.125-.045-.249-.072-.366-.088-.481-.195-.955-.32-1.426l-.107-.374c-.133-.463-.285-.928-.453-1.391-.008-.035-.027-.072-.035-.1L86,36.023V44.2l3.565,2.844c.008-.035.027-.072.035-.107.16-.481.3-.963.427-1.453a.268.268,0,0,0,.018-.08c.115-.463.213-.936.293-1.409.018-.072.027-.142.045-.222.072-.473.133-.945.178-1.426.008-.1.008-.206.018-.3.035-.49.062-.981.062-1.479,0-.555-.028-1.1-.073-1.652Z" transform="translate(-50.641 -20.501)"/><path class="c" d="M65.012,16.373l6.8,4.208,3.528-2.656a20.206,20.206,0,0,0-8.9-9.424l-3.965,1.516Z" transform="translate(-37.154 -6.2)"/><path class="d" d="M48.174,18.94l-2.488-6.232H38.06L35.5,18.95l6.258,3.638Z" transform="translate(-21.686 -8.607)"/><path class="d" d="M65.017,41.993V33.925L58.3,29.769,51.73,33.506V42l6.586,3.745Z" transform="translate(-30.992 -18.366)"/><path class="d" d="M17.457,33.947v8.06L24.3,45.752l6.444-3.735V33.511L24.32,29.793Z" transform="translate(-11.341 -18.38)"/><path class="c" d="M7.9,36.115l-3.52-2.471c-.018.027-.027.062-.045.089-.16.455-.3.909-.435,1.364-.035.134-.08.259-.107.393-.125.463-.232.928-.32,1.391-.027.134-.045.259-.072.383-.08.49-.142.981-.195,1.48-.008.089-.008.187-.018.276-.045.535-.072,1.078-.072,1.623,0,.49.027.981.062,1.463,0,.107.008.206.018.313.045.473.1.945.178,1.418h0a1.953,1.953,0,0,0,.035.2c.072.455.168.909.275,1.364.018.045.018.089.035.134.115.473.258.945.408,1.418h0a.473.473,0,0,1,.035.107L7.9,44.274Z" transform="translate(-3.121 -20.583)"/><path class="c" d="M17.97,16.3l2.595-6.348L16.343,8.375a20.124,20.124,0,0,0-9.031,9.549L11,20.519Z" transform="translate(-5.524 -6.128)"/><path class="c" d="M44.283,5.888l3.28-1.249c-.035-.018-.08-.035-.115-.053-.542-.214-1.085-.41-1.627-.58l-.267-.08c-.533-.152-1.075-.294-1.618-.4l-.267-.053c-.568-.1-1.128-.187-1.707-.249v0a.754.754,0,0,1-.15-.01c-.613-.053-1.235-.089-1.858-.089-.6,0-1.208.035-1.795.089a1.281,1.281,0,0,0-.2.01c-.552.053-1.093.142-1.635.241l-.3.053q-.787.16-1.547.374c-.107.035-.213.062-.32.1v0a15.6,15.6,0,0,0-1.52.535,1.1,1.1,0,0,0-.16.064L36,5.888Z" transform="translate(-19.955 -3.125)"/></g></svg>