<svg xmlns="http://www.w3.org/2000/svg" viewBox="0 0 65 65"><path d="M17.61,11.68l12.3,13.88L22.33,38.68H11.61L1.4,27.71l5.76-10ZM63.89,26,50.31,11.68,37.26,21.23l-.68,9.2,11.25,10L56,36.91Z" fill="#fff"/><path d="M30.76,42.1l-.1,2.78,2.77-.11c3.38-3.39,19.76-.39,30-12.47,4.48-5.25-1.81-13.46-4.27-15.93S48.49,7.63,43.23,12.1C31.14,22.34,34.14,38.71,30.76,42.1ZM54.93,19.25a.9.9,0,0,1-1.27,0,.91.91,0,0,1,0-1.28.9.9,0,1,1,1.27,1.28Zm-2.61,2.61a.9.9,0,0,1-1.27,0,.91.91,0,0,1,0-1.28.9.9,0,1,1,1.27,1.28Zm-2.61,2.61a.9.9,0,0,1-1.27,0,.91.91,0,0,1,0-1.28.9.9,0,1,1,1.27,1.28Zm-2.6,2.61a.91.91,0,1,1,0-1.28A.91.91,0,0,1,47.11,27.08ZM44.5,29.69a.91.91,0,1,1,0-1.28A.91.91,0,0,1,44.5,29.69ZM41.89,32.3a.91.91,0,1,1,0-1.28A.91.91,0,0,1,41.89,32.3ZM57.55,21.87a.9.9,0,0,1-1.27,0,.91.91,0,0,1,0-1.28.9.9,0,1,1,1.27,1.28Zm-2.61,2.61a.9.9,0,0,1-1.27,0,.91.91,0,0,1,0-1.28.9.9,0,1,1,1.27,1.28Zm-2.6,2.61a.91.91,0,1,1,0-1.28A.91.91,0,0,1,52.34,27.09ZM49.73,29.7a.91.91,0,1,1,0-1.28A.91.91,0,0,1,49.73,29.7Zm-2.61,2.61a.91.91,0,1,1,0-1.28A.91.91,0,0,1,47.12,32.31Zm-2.61,2.61a.91.91,0,1,1,0-1.28A.91.91,0,0,1,44.51,34.92Zm6.57,1.35a.91.91,0,1,1,0,1.28A.91.91,0,0,1,51.08,36.27Zm2.61-2.61a.91.91,0,1,1,0,1.28A.91.91,0,0,1,53.69,33.66Zm2.61-2.61a.91.91,0,1,1,0,1.28A.91.91,0,0,1,56.3,31.05Zm2.61-2.6a.9.9,0,0,1,1.28,0,.91.91,0,0,1-1.28,1.28A.9.9,0,0,1,58.91,28.45ZM45.85,36.26a.91.91,0,1,1,0,1.28A.91.91,0,0,1,45.85,36.26Zm2.61-2.61a.91.91,0,1,1,0,1.28A.91.91,0,0,1,48.46,33.65ZM51.07,31a.91.91,0,1,1,0,1.28A.91.91,0,0,1,51.07,31Zm2.61-2.61a.91.91,0,1,1,0,1.28A.91.91,0,0,1,53.68,28.43Zm2.61-2.61a.91.91,0,1,1,0,1.28A.91.91,0,0,1,56.29,25.82Zm2.61-2.61a.9.9,0,1,1,0,1.28A.91.91,0,0,1,58.9,23.21ZM36,33.43c.49,0,.72.49.91.88,0,.07.07.16.1.21l.83,1.93a2.37,2.37,0,0,0,1.29,1.29l1.92.83a4.53,4.53,0,0,1,.45.22.94.94,0,0,1,.66.8c0,.57-1.67,1-2.7,1.23l-.22,0-.43.08c-1.14.2-2.32.43-3.27.63A1.3,1.3,0,0,1,33.94,40c.2-.95.43-2.13.65-3.26,0-.1,0-.25.07-.45C34.86,35.36,35.32,33.46,36,33.43Zm2-5a.91.91,0,1,1,0,1.28A.91.91,0,0,1,38,28.4Zm2.61-2.61a.91.91,0,1,1,0,1.28A.91.91,0,0,1,40.6,25.79Zm2.61-2.61a.9.9,0,1,1,0,1.28A.91.91,0,0,1,43.21,23.18Zm2.61-2.61a.9.9,0,1,1,0,1.28A.91.91,0,0,1,45.82,20.57ZM48.43,18a.9.9,0,1,1,0,1.28A.9.9,0,0,1,48.43,18ZM51,15.35a.9.9,0,0,1,1.27,0,.91.91,0,0,1,0,1.28A.9.9,0,1,1,51,15.35ZM38,23.17a.9.9,0,1,1,0,1.28A.91.91,0,0,1,38,23.17Zm2.61-2.61a.9.9,0,1,1,0,1.28A.91.91,0,0,1,40.59,20.56ZM43.2,18a.9.9,0,1,1,0,1.28A.9.9,0,0,1,43.2,18Zm2.61-2.61a.9.9,0,0,1,1.27,0,.91.91,0,0,1,0,1.28.9.9,0,0,1-1.27-1.28Z" fill="#282d34"/><path d="M21.85,50.15l-.54.54a.81.81,0,0,0,0,1.14l2.4,2.4a.81.81,0,0,0,1.15,0l.52-.53a3.57,3.57,0,0,0,.73-1l.24-.52a3.71,3.71,0,0,1,.73-1l6.35-6.35L30.76,42.1l-6.37,6.36a3.66,3.66,0,0,1-1,.71l-.55.27A3.71,3.71,0,0,0,21.85,50.15Z" fill="#c69c6d"/><path d="M28.33,44.53a5.33,5.33,0,0,1,2.24,1.12l1,1,1.87-1.87L30.76,42.1Z" fill="#282d34" opacity="0.46"/><path d="M21.77,12.1C16.51,7.63,8.31,13.9,5.84,16.37S-2.91,27.05,1.57,32.3c10.24,12.08,26.62,9.08,30,12.47l2.77.11-.1-2.78C30.86,38.71,33.86,22.34,21.77,12.1ZM10.07,18a.9.9,0,0,1,1.27,0,.91.91,0,0,1,0,1.28A.9.9,0,0,1,10.07,18Zm2.61,2.61a.9.9,0,0,1,1.27,0,.91.91,0,0,1,0,1.28.9.9,0,0,1-1.27-1.28Zm2.61,2.61a.9.9,0,0,1,1.27,0,.91.91,0,0,1,0,1.28.9.9,0,0,1-1.27-1.28Zm2.6,2.61a.91.91,0,1,1,0,1.28A.91.91,0,0,1,17.89,25.8Zm2.61,2.61a.91.91,0,1,1,0,1.28A.91.91,0,0,1,20.5,28.41ZM23.11,31a.91.91,0,1,1,0,1.28A.91.91,0,0,1,23.11,31ZM7.45,20.59a.9.9,0,0,1,1.27,0,.91.91,0,0,1,0,1.28.9.9,0,0,1-1.27-1.28Zm2.61,2.61a.9.9,0,0,1,1.27,0,.91.91,0,0,1,0,1.28.9.9,0,0,1-1.27-1.28Zm2.6,2.61a.91.91,0,1,1,0,1.28A.91.91,0,0,1,12.66,25.81Zm2.61,2.61a.91.91,0,1,1,0,1.28A.91.91,0,0,1,15.27,28.42ZM17.88,31a.91.91,0,1,1,0,1.28A.91.91,0,0,1,17.88,31Zm2.61,2.61a.91.91,0,1,1,0,1.28A.91.91,0,0,1,20.49,33.64Zm-6.57,3.91a.91.91,0,1,1,0-1.28A.91.91,0,0,1,13.92,37.55Zm-2.61-2.61a.91.91,0,1,1,0-1.28A.91.91,0,0,1,11.31,34.94ZM8.7,32.33a.91.91,0,1,1,0-1.28A.91.91,0,0,1,8.7,32.33ZM6.09,29.72a.91.91,0,0,1-1.28-1.28.91.91,0,0,1,1.28,1.28Zm13.06,7.82a.91.91,0,1,1,0-1.28A.91.91,0,0,1,19.15,37.54Zm-2.61-2.61a.91.91,0,1,1,0-1.28A.91.91,0,0,1,16.54,34.93Zm-2.61-2.61a.91.91,0,1,1,0-1.28A.91.91,0,0,1,13.93,32.32Zm-2.61-2.61a.91.91,0,1,1,0-1.28A.91.91,0,0,1,11.32,29.71ZM8.71,27.1a.91.91,0,1,1,0-1.28A.91.91,0,0,1,8.71,27.1ZM6.1,24.49a.9.9,0,1,1,0-1.28A.91.91,0,0,1,6.1,24.49ZM30.34,36.33c0,.2.06.35.07.45.22,1.13.45,2.31.65,3.26a1.3,1.3,0,0,1-1.55,1.54c-1-.2-2.13-.43-3.27-.63l-.43-.08-.22,0c-1-.23-2.67-.66-2.7-1.23a.94.94,0,0,1,.66-.8,4.53,4.53,0,0,1,.45-.22l1.92-.83a2.37,2.37,0,0,0,1.29-1.29L28,34.52c0-.05.06-.14.1-.21.19-.39.42-.9.91-.88S30.14,35.36,30.34,36.33ZM27,29.68a.91.91,0,1,1,0-1.28A.91.91,0,0,1,27,29.68ZM24.4,27.07a.91.91,0,1,1,0-1.28A.91.91,0,0,1,24.4,27.07Zm-2.61-2.61a.9.9,0,1,1,0-1.28A.91.91,0,0,1,21.79,24.46Zm-2.61-2.61a.9.9,0,1,1,0-1.28A.91.91,0,0,1,19.18,21.85Zm-2.61-2.61a.9.9,0,1,1,0-1.28A.9.9,0,0,1,16.57,19.24ZM14,16.63a.9.9,0,0,1-1.27,0,.91.91,0,0,1,0-1.28A.9.9,0,1,1,14,16.63ZM27,24.45a.9.9,0,1,1,0-1.28A.91.91,0,0,1,27,24.45Zm-2.61-2.61a.9.9,0,1,1,0-1.28A.91.91,0,0,1,24.41,21.84ZM21.8,19.23a.9.9,0,1,1,0-1.28A.9.9,0,0,1,21.8,19.23Zm-2.61-2.61a.9.9,0,0,1-1.27,0,.91.91,0,0,1,0-1.28.9.9,0,0,1,1.27,1.28Z" fill="#282d34"/><path d="M43.15,50.15l.54.54a.81.81,0,0,1,0,1.14l-2.4,2.4a.81.81,0,0,1-1.15,0l-.52-.53a3.57,3.57,0,0,1-.73-1l-.24-.52a3.71,3.71,0,0,0-.73-1l-6.35-6.35,2.67-2.67,6.37,6.36a3.66,3.66,0,0,0,1,.71l.55.27A3.71,3.71,0,0,1,43.15,50.15Z" fill="#c69c6d"/></svg>