<svg xmlns="http://www.w3.org/2000/svg" width="65" height="65" viewBox="0 0 65 65"><defs><style>.a{fill:#fff;opacity:0;}.b,.c{fill:none;stroke-miterlimit:10;}.b{stroke:#fff;stroke-width:0.25px;}.c{stroke:#292929;}.d{fill:#292929;}</style></defs><g transform="translate(-17 -10)"><rect class="a" width="65" height="65" transform="translate(17 10)"/><g transform="translate(4.445 -1.744)"><g transform="translate(30.872 19)"><path class="b" d="M69.263,18.1,55.8,40.067" transform="translate(-37.011 -18.008)"/><path class="b" d="M76.673,21.1,57.1,44.719" transform="translate(-37.237 -18.531)"/><path class="b" d="M81.752,29.4,63.5,46.163" transform="translate(-38.352 -19.976)"/><path class="b" d="M72.663,18.2,55.9,42.561" transform="translate(-37.028 -18.025)"/><path class="b" d="M80.576,25.7,59.6,46.345" transform="translate(-37.673 -19.332)"/><path class="b" d="M74.65,19.8,56.4,44.079" transform="translate(-37.115 -18.304)"/><path class="b" d="M78.828,23.1,58.1,45.564" transform="translate(-37.411 -18.879)"/><path class="b" d="M67.28,19.5,57.7,35.026" transform="translate(-37.341 -18.252)"/><path class="b" d="M82.21,33,68.5,45.059" transform="translate(-39.223 -20.603)"/><path class="b" d="M71.9,18.4l11.068,9.333" transform="translate(-39.814 -18.06)"/><path class="b" d="M74.7,18.1l8.671,7.184" transform="translate(-40.302 -18.008)"/><path class="b" d="M56.4,39.7l8.343,7.02" transform="translate(-37.115 -21.77)"/><path class="b" d="M55.9,43.4l6.278,5.2" transform="translate(-37.028 -22.414)"/><path class="b" d="M57.9,36.7l9.994,8.343" transform="translate(-37.376 -21.247)"/><path class="b" d="M59.4,33.5l11.068,9.333" transform="translate(-37.637 -20.69)"/><path class="b" d="M65.7,22.4,79.9,34.292" transform="translate(-38.735 -18.757)"/><path class="b" d="M60.3,30.3,72.937,40.872" transform="translate(-37.794 -20.133)"/><path class="b" d="M63.1,26.9,76.4,38.047" transform="translate(-38.282 -19.54)"/><path class="b" d="M64,24.4,78.2,36.373" transform="translate(-38.439 -19.105)"/><path class="b" d="M67.3,20.5,81.092,32.146" transform="translate(-39.014 -18.426)"/><path class="b" d="M69,19,82.378,30.149" transform="translate(-39.31 -18.165)"/><path class="b" d="M61.7,28.8,74.584,39.618" transform="translate(-38.038 -19.872)"/><path class="c" d="M72.88,38.147c-.91.742-12.3,9.248-16.019,6.029s2.726-15.442,3.632-17.014c2.148-4.045,4.458-8.423,8.836-9.084,3.632-.577,6.771,1.816,7.349,2.313.413.329,3.8,3.139,3.881,7.349,0,4.545-4.045,7.684-7.678,10.407Z" transform="translate(-36.996 -17.989)"/><path class="c" d="M55.191,44.7,52.3,53.535" transform="translate(-36.401 -22.641)"/><path class="c" d="M52.3,54.545,59.733,50.5" transform="translate(-36.401 -23.651)"/><path class="d" d="M44.983,63.7,35.65,74.771a.8.8,0,0,1-1.155.084l-1.155-.99a.8.8,0,0,1-.084-1.155l9.248-11.064a.8.8,0,0,1,1.155-.084l1.155.99a.808.808,0,0,1,.168,1.152Z" transform="translate(-33.048 -25.541)"/><path class="c" d="M51.02,55.2,44,63.542" transform="translate(-34.955 -24.47)"/></g><g transform="translate(16.208 19)"><path class="b" d="M55.8,18.1,69.263,40.067" transform="translate(-44.491 -18.008)"/><path class="b" d="M57.1,21.1,76.673,44.719" transform="translate(-52.976 -18.531)"/><path class="b" d="M63.5,29.4,81.753,46.163" transform="translate(-63.339 -19.976)"/><path class="b" d="M55.9,18.2,72.663,42.561" transform="translate(-47.972 -18.025)"/><path class="b" d="M59.6,25.7,80.576,46.345" transform="translate(-58.944 -19.332)"/><path class="b" d="M56.4,19.8,74.65,44.079" transform="translate(-50.372 -18.304)"/><path class="b" d="M58.1,23.1,78.828,45.564" transform="translate(-55.955 -18.879)"/><path class="b" d="M57.7,19.5,67.28,35.026" transform="translate(-44.076 -18.252)"/><path class="b" d="M68.5,33,82.21,45.059" transform="translate(-67.926 -20.603)"/><path class="b" d="M82.966,18.4,71.9,27.731" transform="translate(-71.488 -18.06)"/><path class="b" d="M83.37,18.1,74.7,25.286" transform="translate(-74.205 -18.008)"/><path class="b" d="M64.741,39.7,56.4,46.719" transform="translate(-40.462 -21.77)"/><path class="b" d="M62.176,43.4,55.9,48.6" transform="translate(-37.484 -22.414)"/><path class="b" d="M67.892,36.7,57.9,45.042" transform="translate(-44.852 -21.247)"/><path class="b" d="M70.466,33.5,59.4,42.833" transform="translate(-48.665 -20.69)"/><path class="b" d="M79.9,22.4,65.7,34.292" transform="translate(-63.305 -18.757)"/><path class="b" d="M72.937,30.3,60.3,40.872" transform="translate(-51.882 -20.133)"/><path class="b" d="M76.4,26.9,63.1,38.047" transform="translate(-57.654 -19.54)"/><path class="b" d="M78.2,24.4,64,36.373" transform="translate(-60.203 -19.105)"/><path class="b" d="M81.092,20.5,67.3,32.146" transform="translate(-65.817 -18.426)"/><path class="b" d="M82.378,19,69,30.149" transform="translate(-68.506 -18.165)"/><path class="b" d="M74.584,28.8,61.7,39.618" transform="translate(-54.683 -19.872)"/><path class="c" d="M63.393,38.147c.91.742,12.3,9.248,16.019,6.029s-2.726-15.442-3.632-17.014c-2.148-4.045-4.458-8.423-8.836-9.084-3.632-.577-6.771,1.816-7.349,2.313-.413.329-3.8,3.139-3.881,7.349,0,4.545,4.045,7.684,7.678,10.407Z" transform="translate(-55.716 -17.989)"/><path class="c" d="M52.3,44.7l2.89,8.836" transform="translate(-27.529 -22.641)"/><path class="c" d="M59.733,54.545,52.3,50.5" transform="translate(-32.071 -23.651)"/><path class="d" d="M33.217,63.7l9.333,11.068a.8.8,0,0,0,1.155.084l1.155-.99a.8.8,0,0,0,.084-1.155L35.695,61.645a.8.8,0,0,0-1.155-.084l-1.155.99a.808.808,0,0,0-.168,1.152Z" transform="translate(-1.59 -25.541)"/><path class="c" d="M44,55.2l7.02,8.343" transform="translate(-16.502 -24.47)"/></g></g></g></svg>