<svg xmlns="http://www.w3.org/2000/svg" width="65" height="65" viewBox="0 0 65 65"><defs><style>.a,.b{fill:#fff;}.a{opacity:0;}.c{fill:#ffce00;}</style></defs><g transform="translate(-17 -10)"><rect class="a" width="65" height="65" transform="translate(17 10)"/><g transform="translate(29 21.172)"><circle class="b" cx="20.5" cy="20.5" r="20.5" transform="translate(0 0.828)"/><g transform="translate(0 0.828)"><path class="c" d="M23.277,38.34a18.741,18.741,0,0,0,.157-2.35,17.81,17.81,0,0,0-5.182-12.616A17.749,17.749,0,0,0,5.627,18.281a18.964,18.964,0,0,0-2.252.138A20.533,20.533,0,0,0,23.277,38.34Z" transform="translate(-3.375 2.66)"/><path class="c" d="M20.831,5.834a21.211,21.211,0,0,1,.135-2.354A20.211,20.211,0,0,0,3.459,21.226c.692-.067,1.384-.106,2.095-.106a19.833,19.833,0,0,1,19.9,19.888c0,.74.086,2.486,0,3.206A20.568,20.568,0,0,0,44.286,25.732c-.807.1-2.729,0-3.556,0A19.835,19.835,0,0,1,20.831,5.834Z" transform="translate(-3.341 -3.333)"/><path class="c" d="M23.182,18.547A17.81,17.81,0,0,0,35.8,23.729a18.347,18.347,0,0,0,2.655-.2A20.638,20.638,0,0,0,18.187,3.375,18.3,18.3,0,0,0,18,5.932,17.81,17.81,0,0,0,23.182,18.547Z" transform="translate(2.548 -3.375)"/><path class="c" d="M16.313,3.466Z" transform="translate(1.822 -3.339)"/></g></g></g></svg>